<?xml version="1.0" encoding="UTF-8" standalone="no"?>
<!-- Created with Inkscape (http://www.inkscape.org/) -->

<svg
   xmlns:dc="http://purl.org/dc/elements/1.1/"
   xmlns:cc="http://creativecommons.org/ns#"
   xmlns:rdf="http://www.w3.org/1999/02/22-rdf-syntax-ns#"
   xmlns:svg="http://www.w3.org/2000/svg"
   xmlns="http://www.w3.org/2000/svg"
   xmlns:sodipodi="http://sodipodi.sourceforge.net/DTD/sodipodi-0.dtd"
   xmlns:inkscape="http://www.inkscape.org/namespaces/inkscape"
   width="400"
   height="400"
   id="svg2"
   version="1.1"
   inkscape:version="0.48.4 r9939"
   sodipodi:docname="icon.svg"
   inkscape:export-filename="C:\Users\Ch\git\TorchBox\client\res_svg\icon.png"
   inkscape:export-xdpi="90"
   inkscape:export-ydpi="90">
  <defs
     id="defs4" />
  <sodipodi:namedview
     id="base"
     pagecolor="#ffffff"
     bordercolor="#666666"
     borderopacity="1.0"
     inkscape:pageopacity="0.0"
     inkscape:pageshadow="2"
     inkscape:zoom="1.4"
     inkscape:cx="503.88765"
     inkscape:cy="253.49653"
     inkscape:document-units="px"
     inkscape:current-layer="layer1"
     showgrid="false"
     inkscape:window-width="1858"
     inkscape:window-height="1057"
     inkscape:window-x="1974"
     inkscape:window-y="-8"
     inkscape:window-maximized="1">
    <inkscape:grid
       type="xygrid"
       id="grid2985"
       empspacing="5"
       visible="true"
       enabled="true"
       snapvisiblegridlinesonly="true" />
  </sodipodi:namedview>
  <metadata
     id="metadata7">
    <rdf:RDF>
      <cc:Work
         rdf:about="">
        <dc:format>image/svg+xml</dc:format>
        <dc:type
           rdf:resource="http://purl.org/dc/dcmitype/StillImage" />
        <dc:title></dc:title>
      </cc:Work>
    </rdf:RDF>
  </metadata>
  <g
     inkscape:label="Layer 1"
     inkscape:groupmode="layer"
     id="layer1"
     transform="translate(0,-652.36218)">
    <rect
       style="fill:#a6a6ff;fill-opacity:1;fill-rule:evenodd;stroke:none"
       id="rect2987"
       width="400"
       height="400"
       x="0"
       y="652.36218"
       ry="110" />
    <g
       id="g4117"
       transform="matrix(0.83333302,-0.17962976,0.17962976,0.83333302,-112.4342,222.41248)">
      <g
         style="opacity:0.5"
         transform="matrix(0.94249537,-0.3342192,0.3342192,0.94249537,-236.72435,59.149203)"
         id="g3993"
         inkscape:transform-center-x="31.347693"
         inkscape:transform-center-y="-168.53281">
        <path
           style="fill:#794200;fill-opacity:1;fill-rule:evenodd;stroke:#4e2c00;stroke-width:5;stroke-miterlimit:4;stroke-opacity:1;stroke-dasharray:none"
           d="m 160,932.36218 20,160.00002 50,0 20,-160.00002 z"
           id="path3995"
           inkscape:connector-curvature="0"
           sodipodi:nodetypes="ccccc" />
        <g
           id="g3997"
           transform="translate(-283.85287,-146.9772)">
          <g
             id="g3999"
             inkscape:transform-center-x="-24.723812"
             inkscape:transform-center-y="-74.669934"
             transform="matrix(0.81665155,-0.81412325,0.81412325,0.81665155,-740.07394,572.89609)">
            <path
               inkscape:transform-center-y="-24.45181"
               inkscape:transform-center-x="-41.131229"
               inkscape:connector-curvature="0"
               style="fill:#5784ff;fill-opacity:1;fill-rule:evenodd;stroke:none"
               d="m 630.72253,912.4364 c 0,0 -135.30614,-44.0814 -181.7058,71.58407 -1.00902,2.34218 -1.94355,4.7464 -2.75588,7.23932 -0.0637,0.19559 -0.10539,0.39481 -0.1676,0.59042 -0.0359,0.11269 -0.0745,0.22359 -0.10963,0.33642 -0.30169,0.87942 -0.60001,1.76529 -0.89205,2.66157 l 0.0897,0.0292 c -9.0124,32.4828 3.00917,64.4913 27.85122,72.5861 24.84201,8.0947 53.41341,-10.6867 65.26826,-42.2433 l 0.0897,0.029 C 568.79179,931.95034 630.7225,912.4361 630.7225,912.4361 z"
               id="path4001" />
            <path
               id="path4003"
               d="m 660.11797,977.66082 c 0,0 -105.91428,-95.04256 -195.13283,-8.02832 -1.87016,1.73392 -3.69728,3.5547 -5.44852,5.50603 -0.13737,0.15312 -0.25607,0.31844 -0.39209,0.47218 -0.0783,0.0886 -0.15852,0.17437 -0.23633,0.26333 -0.63162,0.68225 -1.26276,1.37176 -1.89236,2.07332 l 0.0702,0.063 c -21.3808,26.06194 -23.33312,60.19774 -3.88798,77.64874 19.44512,17.451 53.17165,11.831 76.77737,-12.2341 l 0.0703,0.063 c 65.5406,-73.02989 130.07229,-65.8272 130.07229,-65.8272 z"
               style="fill:#ffc100;fill-opacity:1;fill-rule:evenodd;stroke:none"
               inkscape:connector-curvature="0"
               inkscape:transform-center-x="-53.596456"
               inkscape:transform-center-y="-13.857834" />
            <path
               id="path4005"
               d="m 657.34854,948.53219 c 0,0 -125.64948,-81.5902 -204.26254,23.45248 -1.66251,2.10822 -3.26613,4.29976 -4.76953,6.61472 -0.11794,0.18164 -0.21443,0.37295 -0.33085,0.555 -0.0671,0.10488 -0.13646,0.2072 -0.2029,0.31241 -0.54574,0.81253 -1.08979,1.63254 -1.63029,2.46484 l 0.0833,0.0541 c -17.99023,30.59106 -14.45735,66.41316 8.61131,81.39466 23.06867,14.9812 57.23108,3.6392 77.86084,-25.2377 l 0.0834,0.054 C 589.05646,951.55815 657.3486,948.53221 657.3486,948.53221 z"
               style="fill:#ff0000;fill-opacity:1;fill-rule:evenodd;stroke:none"
               inkscape:connector-curvature="0"
               inkscape:transform-center-x="-53.274409"
               inkscape:transform-center-y="-18.064549" />
          </g>
          <g
             transform="matrix(1.0570087,-0.29167561,0.29167561,1.0570087,-320.56836,75.944936)"
             inkscape:transform-center-y="-48.448948"
             inkscape:transform-center-x="-64.779207"
             id="g4007">
            <path
               id="path4009"
               d="m 630.72253,912.4364 c 0,0 -135.30614,-44.0814 -181.7058,71.58407 -1.00902,2.34218 -1.94355,4.7464 -2.75588,7.23932 -0.0637,0.19559 -0.10539,0.39481 -0.1676,0.59042 -0.0359,0.11269 -0.0745,0.22359 -0.10963,0.33642 -0.30169,0.87942 -0.60001,1.76529 -0.89205,2.66157 l 0.0897,0.0292 c -9.0124,32.4828 3.00917,64.4913 27.85122,72.5861 24.84201,8.0947 53.41341,-10.6867 65.26826,-42.2433 l 0.0897,0.029 C 568.79179,931.95034 630.7225,912.4361 630.7225,912.4361 z"
               style="fill:#5784ff;fill-opacity:1;fill-rule:evenodd;stroke:none"
               inkscape:connector-curvature="0"
               inkscape:transform-center-x="-41.131229"
               inkscape:transform-center-y="-24.45181" />
            <path
               inkscape:transform-center-y="-13.857834"
               inkscape:transform-center-x="-53.596456"
               inkscape:connector-curvature="0"
               style="fill:#ffc100;fill-opacity:1;fill-rule:evenodd;stroke:none"
               d="m 660.11797,977.66082 c 0,0 -105.91428,-95.04256 -195.13283,-8.02832 -1.87016,1.73392 -3.69728,3.5547 -5.44852,5.50603 -0.13737,0.15312 -0.25607,0.31844 -0.39209,0.47218 -0.0783,0.0886 -0.15852,0.17437 -0.23633,0.26333 -0.63162,0.68225 -1.26276,1.37176 -1.89236,2.07332 l 0.0702,0.063 c -21.3808,26.06194 -23.33312,60.19774 -3.88798,77.64874 19.44512,17.451 53.17165,11.831 76.77737,-12.2341 l 0.0703,0.063 c 65.5406,-73.02989 130.07229,-65.8272 130.07229,-65.8272 z"
               id="path4011" />
            <path
               inkscape:transform-center-y="-18.064549"
               inkscape:transform-center-x="-53.274409"
               inkscape:connector-curvature="0"
               style="fill:#ff0000;fill-opacity:1;fill-rule:evenodd;stroke:none"
               d="m 657.34854,948.53219 c 0,0 -125.64948,-81.5902 -204.26254,23.45248 -1.66251,2.10822 -3.26613,4.29976 -4.76953,6.61472 -0.11794,0.18164 -0.21443,0.37295 -0.33085,0.555 -0.0671,0.10488 -0.13646,0.2072 -0.2029,0.31241 -0.54574,0.81253 -1.08979,1.63254 -1.63029,2.46484 l 0.0833,0.0541 c -17.99023,30.59106 -14.45735,66.41316 8.61131,81.39466 23.06867,14.9812 57.23108,3.6392 77.86084,-25.2377 l 0.0834,0.054 C 589.05646,951.55815 657.3486,948.53221 657.3486,948.53221 z"
               id="path4013" />
          </g>
          <path
             id="path4015"
             d="m 632.28852,910.10972 c 0,0 -135.30614,-44.0814 -181.7058,71.58407 -1.00902,2.34218 -1.94355,4.7464 -2.75588,7.23932 -0.0637,0.19559 -0.10539,0.39481 -0.1676,0.59042 -0.0359,0.11269 -0.0745,0.22359 -0.10963,0.33642 -0.30169,0.87942 -0.60001,1.76529 -0.89205,2.66157 l 0.0897,0.0292 c -9.0124,32.48288 3.00917,64.49138 27.85122,72.58618 24.84201,8.0947 53.41341,-10.6867 65.26826,-42.2433 l 0.0897,0.029 c 30.40134,-93.29894 92.33205,-112.81318 92.33205,-112.81318 z"
             style="fill:#5784ff;fill-opacity:1;fill-rule:evenodd;stroke:none"
             inkscape:connector-curvature="0"
             inkscape:transform-center-x="-41.131229"
             inkscape:transform-center-y="-24.45181" />
          <path
             inkscape:transform-center-y="-13.857834"
             inkscape:transform-center-x="-53.596456"
             inkscape:connector-curvature="0"
             style="fill:#ffc100;fill-opacity:1;fill-rule:evenodd;stroke:none"
             d="m 666.68396,980.69128 c 0,0 -105.91428,-95.04256 -195.13283,-8.02832 -1.87016,1.73392 -3.69728,3.5547 -5.44852,5.50603 -0.13737,0.15312 -0.25607,0.31844 -0.39209,0.47218 -0.0783,0.0886 -0.15852,0.17437 -0.23633,0.26333 -0.63162,0.68225 -1.26276,1.37176 -1.89236,2.07332 l 0.0702,0.063 c -21.3808,26.06198 -23.33312,60.19778 -3.88798,77.64878 19.44512,17.451 53.17165,11.831 76.77737,-12.2341 l 0.0703,0.063 c 65.5406,-73.02993 130.07229,-65.82724 130.07229,-65.82724 z"
             id="path4017" />
          <path
             inkscape:transform-center-y="-18.064549"
             inkscape:transform-center-x="-53.274409"
             inkscape:connector-curvature="0"
             style="fill:#ff0000;fill-opacity:1;fill-rule:evenodd;stroke:none"
             d="m 663.91453,951.56265 c 0,0 -125.64948,-81.5902 -204.26254,23.45248 -1.66251,2.10822 -3.26613,4.29976 -4.76953,6.61472 -0.11794,0.18164 -0.21443,0.37295 -0.33085,0.555 -0.0671,0.10488 -0.13646,0.2072 -0.2029,0.31241 -0.54574,0.81253 -1.08979,1.63254 -1.63029,2.46484 l 0.0833,0.0541 c -17.99023,30.5911 -14.45735,66.4132 8.61131,81.3947 23.06867,14.9812 57.23108,3.6392 77.86084,-25.2377 l 0.0834,0.054 c 56.26518,-86.63859 124.55732,-89.66453 124.55732,-89.66453 z"
             id="path4019" />
        </g>
        <path
           style="fill:#794200;fill-opacity:1;fill-rule:evenodd;stroke:#4e2c00;stroke-width:5;stroke-linecap:round;stroke-linejoin:round;stroke-miterlimit:4;stroke-opacity:1;stroke-dasharray:none"
           d="m 130,240 -10,10 0,20 10,10 150,0 10,-10 0,-20 -10,-10 z"
           id="path4021"
           inkscape:connector-curvature="0"
           transform="translate(0,652.36218)" />
      </g>
      <g
         style="opacity:0.8"
         inkscape:transform-center-y="-153.5942"
         inkscape:transform-center-x="89.249144"
         id="g3963"
         transform="matrix(0.81445479,-0.58022702,0.58022702,0.81445479,-468.61016,243.83034)">
        <path
           sodipodi:nodetypes="ccccc"
           inkscape:connector-curvature="0"
           id="path3965"
           d="m 160,932.36218 20,160.00002 50,0 20,-160.00002 z"
           style="fill:#794200;fill-opacity:1;fill-rule:evenodd;stroke:#4e2c00;stroke-width:5;stroke-miterlimit:4;stroke-opacity:1;stroke-dasharray:none" />
        <g
           transform="translate(-283.85287,-146.9772)"
           id="g3967">
          <g
             transform="matrix(0.81665155,-0.81412325,0.81412325,0.81665155,-740.07394,572.89609)"
             inkscape:transform-center-y="-74.669934"
             inkscape:transform-center-x="-24.723812"
             id="g3969">
            <path
               id="path3971"
               d="m 630.72253,912.4364 c 0,0 -135.30614,-44.0814 -181.7058,71.58407 -1.00902,2.34218 -1.94355,4.7464 -2.75588,7.23932 -0.0637,0.19559 -0.10539,0.39481 -0.1676,0.59042 -0.0359,0.11269 -0.0745,0.22359 -0.10963,0.33642 -0.30169,0.87942 -0.60001,1.76529 -0.89205,2.66157 l 0.0897,0.0292 c -9.0124,32.4828 3.00917,64.4913 27.85122,72.5861 24.84201,8.0947 53.41341,-10.6867 65.26826,-42.2433 l 0.0897,0.029 C 568.79179,931.95034 630.7225,912.4361 630.7225,912.4361 z"
               style="fill:#5784ff;fill-opacity:1;fill-rule:evenodd;stroke:none"
               inkscape:connector-curvature="0"
               inkscape:transform-center-x="-41.131229"
               inkscape:transform-center-y="-24.45181" />
            <path
               inkscape:transform-center-y="-13.857834"
               inkscape:transform-center-x="-53.596456"
               inkscape:connector-curvature="0"
               style="fill:#ffc100;fill-opacity:1;fill-rule:evenodd;stroke:none"
               d="m 660.11797,977.66082 c 0,0 -105.91428,-95.04256 -195.13283,-8.02832 -1.87016,1.73392 -3.69728,3.5547 -5.44852,5.50603 -0.13737,0.15312 -0.25607,0.31844 -0.39209,0.47218 -0.0783,0.0886 -0.15852,0.17437 -0.23633,0.26333 -0.63162,0.68225 -1.26276,1.37176 -1.89236,2.07332 l 0.0702,0.063 c -21.3808,26.06194 -23.33312,60.19774 -3.88798,77.64874 19.44512,17.451 53.17165,11.831 76.77737,-12.2341 l 0.0703,0.063 c 65.5406,-73.02989 130.07229,-65.8272 130.07229,-65.8272 z"
               id="path3973" />
            <path
               inkscape:transform-center-y="-18.064549"
               inkscape:transform-center-x="-53.274409"
               inkscape:connector-curvature="0"
               style="fill:#ff0000;fill-opacity:1;fill-rule:evenodd;stroke:none"
               d="m 657.34854,948.53219 c 0,0 -125.64948,-81.5902 -204.26254,23.45248 -1.66251,2.10822 -3.26613,4.29976 -4.76953,6.61472 -0.11794,0.18164 -0.21443,0.37295 -0.33085,0.555 -0.0671,0.10488 -0.13646,0.2072 -0.2029,0.31241 -0.54574,0.81253 -1.08979,1.63254 -1.63029,2.46484 l 0.0833,0.0541 c -17.99023,30.59106 -14.45735,66.41316 8.61131,81.39466 23.06867,14.9812 57.23108,3.6392 77.86084,-25.2377 l 0.0834,0.054 C 589.05646,951.55815 657.3486,948.53221 657.3486,948.53221 z"
               id="path3975" />
          </g>
          <g
             id="g3977"
             inkscape:transform-center-x="-64.779207"
             inkscape:transform-center-y="-48.448948"
             transform="matrix(1.0570087,-0.29167561,0.29167561,1.0570087,-320.56836,75.944936)">
            <path
               inkscape:transform-center-y="-24.45181"
               inkscape:transform-center-x="-41.131229"
               inkscape:connector-curvature="0"
               style="fill:#5784ff;fill-opacity:1;fill-rule:evenodd;stroke:none"
               d="m 630.72253,912.4364 c 0,0 -135.30614,-44.0814 -181.7058,71.58407 -1.00902,2.34218 -1.94355,4.7464 -2.75588,7.23932 -0.0637,0.19559 -0.10539,0.39481 -0.1676,0.59042 -0.0359,0.11269 -0.0745,0.22359 -0.10963,0.33642 -0.30169,0.87942 -0.60001,1.76529 -0.89205,2.66157 l 0.0897,0.0292 c -9.0124,32.4828 3.00917,64.4913 27.85122,72.5861 24.84201,8.0947 53.41341,-10.6867 65.26826,-42.2433 l 0.0897,0.029 C 568.79179,931.95034 630.7225,912.4361 630.7225,912.4361 z"
               id="path3979" />
            <path
               id="path3981"
               d="m 660.11797,977.66082 c 0,0 -105.91428,-95.04256 -195.13283,-8.02832 -1.87016,1.73392 -3.69728,3.5547 -5.44852,5.50603 -0.13737,0.15312 -0.25607,0.31844 -0.39209,0.47218 -0.0783,0.0886 -0.15852,0.17437 -0.23633,0.26333 -0.63162,0.68225 -1.26276,1.37176 -1.89236,2.07332 l 0.0702,0.063 c -21.3808,26.06194 -23.33312,60.19774 -3.88798,77.64874 19.44512,17.451 53.17165,11.831 76.77737,-12.2341 l 0.0703,0.063 c 65.5406,-73.02989 130.07229,-65.8272 130.07229,-65.8272 z"
               style="fill:#ffc100;fill-opacity:1;fill-rule:evenodd;stroke:none"
               inkscape:connector-curvature="0"
               inkscape:transform-center-x="-53.596456"
               inkscape:transform-center-y="-13.857834" />
            <path
               id="path3983"
               d="m 657.34854,948.53219 c 0,0 -125.64948,-81.5902 -204.26254,23.45248 -1.66251,2.10822 -3.26613,4.29976 -4.76953,6.61472 -0.11794,0.18164 -0.21443,0.37295 -0.33085,0.555 -0.0671,0.10488 -0.13646,0.2072 -0.2029,0.31241 -0.54574,0.81253 -1.08979,1.63254 -1.63029,2.46484 l 0.0833,0.0541 c -17.99023,30.59106 -14.45735,66.41316 8.61131,81.39466 23.06867,14.9812 57.23108,3.6392 77.86084,-25.2377 l 0.0834,0.054 C 589.05646,951.55815 657.3486,948.53221 657.3486,948.53221 z"
               style="fill:#ff0000;fill-opacity:1;fill-rule:evenodd;stroke:none"
               inkscape:connector-curvature="0"
               inkscape:transform-center-x="-53.274409"
               inkscape:transform-center-y="-18.064549" />
          </g>
          <path
             inkscape:transform-center-y="-24.45181"
             inkscape:transform-center-x="-41.131229"
             inkscape:connector-curvature="0"
             style="fill:#5784ff;fill-opacity:1;fill-rule:evenodd;stroke:none"
             d="m 632.28852,910.10972 c 0,0 -135.30614,-44.0814 -181.7058,71.58407 -1.00902,2.34218 -1.94355,4.7464 -2.75588,7.23932 -0.0637,0.19559 -0.10539,0.39481 -0.1676,0.59042 -0.0359,0.11269 -0.0745,0.22359 -0.10963,0.33642 -0.30169,0.87942 -0.60001,1.76529 -0.89205,2.66157 l 0.0897,0.0292 c -9.0124,32.48288 3.00917,64.49138 27.85122,72.58618 24.84201,8.0947 53.41341,-10.6867 65.26826,-42.2433 l 0.0897,0.029 c 30.40134,-93.29894 92.33205,-112.81318 92.33205,-112.81318 z"
             id="path3985" />
          <path
             id="path3987"
             d="m 666.68396,980.69128 c 0,0 -105.91428,-95.04256 -195.13283,-8.02832 -1.87016,1.73392 -3.69728,3.5547 -5.44852,5.50603 -0.13737,0.15312 -0.25607,0.31844 -0.39209,0.47218 -0.0783,0.0886 -0.15852,0.17437 -0.23633,0.26333 -0.63162,0.68225 -1.26276,1.37176 -1.89236,2.07332 l 0.0702,0.063 c -21.3808,26.06198 -23.33312,60.19778 -3.88798,77.64878 19.44512,17.451 53.17165,11.831 76.77737,-12.2341 l 0.0703,0.063 c 65.5406,-73.02993 130.07229,-65.82724 130.07229,-65.82724 z"
             style="fill:#ffc100;fill-opacity:1;fill-rule:evenodd;stroke:none"
             inkscape:connector-curvature="0"
             inkscape:transform-center-x="-53.596456"
             inkscape:transform-center-y="-13.857834" />
          <path
             id="path3989"
             d="m 663.91453,951.56265 c 0,0 -125.64948,-81.5902 -204.26254,23.45248 -1.66251,2.10822 -3.26613,4.29976 -4.76953,6.61472 -0.11794,0.18164 -0.21443,0.37295 -0.33085,0.555 -0.0671,0.10488 -0.13646,0.2072 -0.2029,0.31241 -0.54574,0.81253 -1.08979,1.63254 -1.63029,2.46484 l 0.0833,0.0541 c -17.99023,30.5911 -14.45735,66.4132 8.61131,81.3947 23.06867,14.9812 57.23108,3.6392 77.86084,-25.2377 l 0.0834,0.054 c 56.26518,-86.63859 124.55732,-89.66453 124.55732,-89.66453 z"
             style="fill:#ff0000;fill-opacity:1;fill-rule:evenodd;stroke:none"
             inkscape:connector-curvature="0"
             inkscape:transform-center-x="-53.274409"
             inkscape:transform-center-y="-18.064549" />
        </g>
        <path
           transform="translate(0,652.36218)"
           inkscape:connector-curvature="0"
           id="path3991"
           d="m 130,240 -10,10 0,20 10,10 150,0 10,-10 0,-20 -10,-10 z"
           style="fill:#794200;fill-opacity:1;fill-rule:evenodd;stroke:#4e2c00;stroke-width:5;stroke-linecap:round;stroke-linejoin:round;stroke-miterlimit:4;stroke-opacity:1;stroke-dasharray:none" />
      </g>
      <g
         transform="matrix(0.62593419,-0.77987588,0.77987588,0.62593419,-639.4812,482.47399)"
         id="g3917">
        <path
           style="fill:#794200;fill-opacity:1;fill-rule:evenodd;stroke:#4e2c00;stroke-width:5;stroke-miterlimit:4;stroke-opacity:1;stroke-dasharray:none"
           d="m 160,932.36218 20,160.00002 50,0 20,-160.00002 z"
           id="path3761"
           inkscape:connector-curvature="0"
           sodipodi:nodetypes="ccccc" />
        <g
           id="g3902"
           transform="translate(-283.85287,-146.9772)">
          <g
             id="g3865"
             inkscape:transform-center-x="-24.723812"
             inkscape:transform-center-y="-74.669934"
             transform="matrix(0.81665155,-0.81412325,0.81412325,0.81665155,-740.07394,572.89609)">
            <path
               inkscape:transform-center-y="-24.45181"
               inkscape:transform-center-x="-41.131229"
               inkscape:connector-curvature="0"
               style="fill:#5784ff;fill-opacity:1;fill-rule:evenodd;stroke:none"
               d="m 630.72253,912.4364 c 0,0 -135.30614,-44.0814 -181.7058,71.58407 -1.00902,2.34218 -1.94355,4.7464 -2.75588,7.23932 -0.0637,0.19559 -0.10539,0.39481 -0.1676,0.59042 -0.0359,0.11269 -0.0745,0.22359 -0.10963,0.33642 -0.30169,0.87942 -0.60001,1.76529 -0.89205,2.66157 l 0.0897,0.0292 c -9.0124,32.4828 3.00917,64.4913 27.85122,72.5861 24.84201,8.0947 53.41341,-10.6867 65.26826,-42.2433 l 0.0897,0.029 C 568.79179,931.95034 630.7225,912.4361 630.7225,912.4361 z"
               id="path3867" />
            <path
               id="path3869"
               d="m 660.11797,977.66082 c 0,0 -105.91428,-95.04256 -195.13283,-8.02832 -1.87016,1.73392 -3.69728,3.5547 -5.44852,5.50603 -0.13737,0.15312 -0.25607,0.31844 -0.39209,0.47218 -0.0783,0.0886 -0.15852,0.17437 -0.23633,0.26333 -0.63162,0.68225 -1.26276,1.37176 -1.89236,2.07332 l 0.0702,0.063 c -21.3808,26.06194 -23.33312,60.19774 -3.88798,77.64874 19.44512,17.451 53.17165,11.831 76.77737,-12.2341 l 0.0703,0.063 c 65.5406,-73.02989 130.07229,-65.8272 130.07229,-65.8272 z"
               style="fill:#ffc100;fill-opacity:1;fill-rule:evenodd;stroke:none"
               inkscape:connector-curvature="0"
               inkscape:transform-center-x="-53.596456"
               inkscape:transform-center-y="-13.857834" />
            <path
               id="path3871"
               d="m 657.34854,948.53219 c 0,0 -125.64948,-81.5902 -204.26254,23.45248 -1.66251,2.10822 -3.26613,4.29976 -4.76953,6.61472 -0.11794,0.18164 -0.21443,0.37295 -0.33085,0.555 -0.0671,0.10488 -0.13646,0.2072 -0.2029,0.31241 -0.54574,0.81253 -1.08979,1.63254 -1.63029,2.46484 l 0.0833,0.0541 c -17.99023,30.59106 -14.45735,66.41316 8.61131,81.39466 23.06867,14.9812 57.23108,3.6392 77.86084,-25.2377 l 0.0834,0.054 C 589.05646,951.55815 657.3486,948.53221 657.3486,948.53221 z"
               style="fill:#ff0000;fill-opacity:1;fill-rule:evenodd;stroke:none"
               inkscape:connector-curvature="0"
               inkscape:transform-center-x="-53.274409"
               inkscape:transform-center-y="-18.064549" />
          </g>
          <g
             transform="matrix(1.0570087,-0.29167561,0.29167561,1.0570087,-320.56836,75.944936)"
             inkscape:transform-center-y="-48.448948"
             inkscape:transform-center-x="-64.779207"
             id="g3857">
            <path
               id="path3859"
               d="m 630.72253,912.4364 c 0,0 -135.30614,-44.0814 -181.7058,71.58407 -1.00902,2.34218 -1.94355,4.7464 -2.75588,7.23932 -0.0637,0.19559 -0.10539,0.39481 -0.1676,0.59042 -0.0359,0.11269 -0.0745,0.22359 -0.10963,0.33642 -0.30169,0.87942 -0.60001,1.76529 -0.89205,2.66157 l 0.0897,0.0292 c -9.0124,32.4828 3.00917,64.4913 27.85122,72.5861 24.84201,8.0947 53.41341,-10.6867 65.26826,-42.2433 l 0.0897,0.029 C 568.79179,931.95034 630.7225,912.4361 630.7225,912.4361 z"
               style="fill:#5784ff;fill-opacity:1;fill-rule:evenodd;stroke:none"
               inkscape:connector-curvature="0"
               inkscape:transform-center-x="-41.131229"
               inkscape:transform-center-y="-24.45181" />
            <path
               inkscape:transform-center-y="-13.857834"
               inkscape:transform-center-x="-53.596456"
               inkscape:connector-curvature="0"
               style="fill:#ffc100;fill-opacity:1;fill-rule:evenodd;stroke:none"
               d="m 660.11797,977.66082 c 0,0 -105.91428,-95.04256 -195.13283,-8.02832 -1.87016,1.73392 -3.69728,3.5547 -5.44852,5.50603 -0.13737,0.15312 -0.25607,0.31844 -0.39209,0.47218 -0.0783,0.0886 -0.15852,0.17437 -0.23633,0.26333 -0.63162,0.68225 -1.26276,1.37176 -1.89236,2.07332 l 0.0702,0.063 c -21.3808,26.06194 -23.33312,60.19774 -3.88798,77.64874 19.44512,17.451 53.17165,11.831 76.77737,-12.2341 l 0.0703,0.063 c 65.5406,-73.02989 130.07229,-65.8272 130.07229,-65.8272 z"
               id="path3861" />
            <path
               inkscape:transform-center-y="-18.064549"
               inkscape:transform-center-x="-53.274409"
               inkscape:connector-curvature="0"
               style="fill:#ff0000;fill-opacity:1;fill-rule:evenodd;stroke:none"
               d="m 657.34854,948.53219 c 0,0 -125.64948,-81.5902 -204.26254,23.45248 -1.66251,2.10822 -3.26613,4.29976 -4.76953,6.61472 -0.11794,0.18164 -0.21443,0.37295 -0.33085,0.555 -0.0671,0.10488 -0.13646,0.2072 -0.2029,0.31241 -0.54574,0.81253 -1.08979,1.63254 -1.63029,2.46484 l 0.0833,0.0541 c -17.99023,30.59106 -14.45735,66.41316 8.61131,81.39466 23.06867,14.9812 57.23108,3.6392 77.86084,-25.2377 l 0.0834,0.054 C 589.05646,951.55815 657.3486,948.53221 657.3486,948.53221 z"
               id="path3863" />
          </g>
          <path
             id="path3834"
             d="m 632.28852,910.10972 c 0,0 -135.30614,-44.0814 -181.7058,71.58407 -1.00902,2.34218 -1.94355,4.7464 -2.75588,7.23932 -0.0637,0.19559 -0.10539,0.39481 -0.1676,0.59042 -0.0359,0.11269 -0.0745,0.22359 -0.10963,0.33642 -0.30169,0.87942 -0.60001,1.76529 -0.89205,2.66157 l 0.0897,0.0292 c -9.0124,32.48288 3.00917,64.49138 27.85122,72.58618 24.84201,8.0947 53.41341,-10.6867 65.26826,-42.2433 l 0.0897,0.029 c 30.40134,-93.29894 92.33205,-112.81318 92.33205,-112.81318 z"
             style="fill:#5784ff;fill-opacity:1;fill-rule:evenodd;stroke:none"
             inkscape:connector-curvature="0"
             inkscape:transform-center-x="-41.131229"
             inkscape:transform-center-y="-24.45181" />
          <path
             inkscape:transform-center-y="-13.857834"
             inkscape:transform-center-x="-53.596456"
             inkscape:connector-curvature="0"
             style="fill:#ffc100;fill-opacity:1;fill-rule:evenodd;stroke:none"
             d="m 666.68396,980.69128 c 0,0 -105.91428,-95.04256 -195.13283,-8.02832 -1.87016,1.73392 -3.69728,3.5547 -5.44852,5.50603 -0.13737,0.15312 -0.25607,0.31844 -0.39209,0.47218 -0.0783,0.0886 -0.15852,0.17437 -0.23633,0.26333 -0.63162,0.68225 -1.26276,1.37176 -1.89236,2.07332 l 0.0702,0.063 c -21.3808,26.06198 -23.33312,60.19778 -3.88798,77.64878 19.44512,17.451 53.17165,11.831 76.77737,-12.2341 l 0.0703,0.063 c 65.5406,-73.02993 130.07229,-65.82724 130.07229,-65.82724 z"
             id="path3836" />
          <path
             inkscape:transform-center-y="-18.064549"
             inkscape:transform-center-x="-53.274409"
             inkscape:connector-curvature="0"
             style="fill:#ff0000;fill-opacity:1;fill-rule:evenodd;stroke:none"
             d="m 663.91453,951.56265 c 0,0 -125.64948,-81.5902 -204.26254,23.45248 -1.66251,2.10822 -3.26613,4.29976 -4.76953,6.61472 -0.11794,0.18164 -0.21443,0.37295 -0.33085,0.555 -0.0671,0.10488 -0.13646,0.2072 -0.2029,0.31241 -0.54574,0.81253 -1.08979,1.63254 -1.63029,2.46484 l 0.0833,0.0541 c -17.99023,30.5911 -14.45735,66.4132 8.61131,81.3947 23.06867,14.9812 57.23108,3.6392 77.86084,-25.2377 l 0.0834,0.054 c 56.26518,-86.63859 124.55732,-89.66453 124.55732,-89.66453 z"
             id="path3828" />
        </g>
        <path
           style="fill:#794200;fill-opacity:1;fill-rule:evenodd;stroke:#4e2c00;stroke-width:5;stroke-linecap:round;stroke-linejoin:round;stroke-miterlimit:4;stroke-opacity:1;stroke-dasharray:none"
           d="m 130,240 -10,10 0,20 10,10 150,0 10,-10 0,-20 -10,-10 z"
           id="path3915"
           inkscape:connector-curvature="0"
           transform="translate(0,652.36218)" />
      </g>
    </g>
    <g
       id="g3933"
       transform="translate(402.85714,2.1428571)">
      <path
         style="fill:#794200;fill-opacity:1;fill-rule:evenodd;stroke:#4e2c00;stroke-width:5;stroke-miterlimit:4;stroke-opacity:1;stroke-dasharray:none"
         d="m 160,932.36218 20,160.00002 50,0 20,-160.00002 z"
         id="path3935"
         inkscape:connector-curvature="0"
         sodipodi:nodetypes="ccccc" />
      <g
         id="g3937"
         transform="translate(-283.85287,-146.9772)">
        <g
           id="g3939"
           inkscape:transform-center-x="-24.723812"
           inkscape:transform-center-y="-74.669934"
           transform="matrix(0.81665155,-0.81412325,0.81412325,0.81665155,-740.07394,572.89609)">
          <path
             inkscape:transform-center-y="-24.45181"
             inkscape:transform-center-x="-41.131229"
             inkscape:connector-curvature="0"
             style="fill:#5784ff;fill-opacity:1;fill-rule:evenodd;stroke:none"
             d="m 630.72253,912.4364 c 0,0 -135.30614,-44.0814 -181.7058,71.58407 -1.00902,2.34218 -1.94355,4.7464 -2.75588,7.23932 -0.0637,0.19559 -0.10539,0.39481 -0.1676,0.59042 -0.0359,0.11269 -0.0745,0.22359 -0.10963,0.33642 -0.30169,0.87942 -0.60001,1.76529 -0.89205,2.66157 l 0.0897,0.0292 c -9.0124,32.4828 3.00917,64.4913 27.85122,72.5861 24.84201,8.0947 53.41341,-10.6867 65.26826,-42.2433 l 0.0897,0.029 C 568.79179,931.95034 630.7225,912.4361 630.7225,912.4361 z"
             id="path3941" />
          <path
             id="path3943"
             d="m 660.11797,977.66082 c 0,0 -105.91428,-95.04256 -195.13283,-8.02832 -1.87016,1.73392 -3.69728,3.5547 -5.44852,5.50603 -0.13737,0.15312 -0.25607,0.31844 -0.39209,0.47218 -0.0783,0.0886 -0.15852,0.17437 -0.23633,0.26333 -0.63162,0.68225 -1.26276,1.37176 -1.89236,2.07332 l 0.0702,0.063 c -21.3808,26.06194 -23.33312,60.19774 -3.88798,77.64874 19.44512,17.451 53.17165,11.831 76.77737,-12.2341 l 0.0703,0.063 c 65.5406,-73.02989 130.07229,-65.8272 130.07229,-65.8272 z"
             style="fill:#ffc100;fill-opacity:1;fill-rule:evenodd;stroke:none"
             inkscape:connector-curvature="0"
             inkscape:transform-center-x="-53.596456"
             inkscape:transform-center-y="-13.857834" />
          <path
             id="path3945"
             d="m 657.34854,948.53219 c 0,0 -125.64948,-81.5902 -204.26254,23.45248 -1.66251,2.10822 -3.26613,4.29976 -4.76953,6.61472 -0.11794,0.18164 -0.21443,0.37295 -0.33085,0.555 -0.0671,0.10488 -0.13646,0.2072 -0.2029,0.31241 -0.54574,0.81253 -1.08979,1.63254 -1.63029,2.46484 l 0.0833,0.0541 c -17.99023,30.59106 -14.45735,66.41316 8.61131,81.39466 23.06867,14.9812 57.23108,3.6392 77.86084,-25.2377 l 0.0834,0.054 C 589.05646,951.55815 657.3486,948.53221 657.3486,948.53221 z"
             style="fill:#ff0000;fill-opacity:1;fill-rule:evenodd;stroke:none"
             inkscape:connector-curvature="0"
             inkscape:transform-center-x="-53.274409"
             inkscape:transform-center-y="-18.064549" />
        </g>
        <g
           transform="matrix(1.0570087,-0.29167561,0.29167561,1.0570087,-320.56836,75.944936)"
           inkscape:transform-center-y="-48.448948"
           inkscape:transform-center-x="-64.779207"
           id="g3947">
          <path
             id="path3949"
             d="m 630.72253,912.4364 c 0,0 -135.30614,-44.0814 -181.7058,71.58407 -1.00902,2.34218 -1.94355,4.7464 -2.75588,7.23932 -0.0637,0.19559 -0.10539,0.39481 -0.1676,0.59042 -0.0359,0.11269 -0.0745,0.22359 -0.10963,0.33642 -0.30169,0.87942 -0.60001,1.76529 -0.89205,2.66157 l 0.0897,0.0292 c -9.0124,32.4828 3.00917,64.4913 27.85122,72.5861 24.84201,8.0947 53.41341,-10.6867 65.26826,-42.2433 l 0.0897,0.029 C 568.79179,931.95034 630.7225,912.4361 630.7225,912.4361 z"
             style="fill:#5784ff;fill-opacity:1;fill-rule:evenodd;stroke:none"
             inkscape:connector-curvature="0"
             inkscape:transform-center-x="-41.131229"
             inkscape:transform-center-y="-24.45181" />
          <path
             inkscape:transform-center-y="-13.857834"
             inkscape:transform-center-x="-53.596456"
             inkscape:connector-curvature="0"
             style="fill:#ffc100;fill-opacity:1;fill-rule:evenodd;stroke:none"
             d="m 660.11797,977.66082 c 0,0 -105.91428,-95.04256 -195.13283,-8.02832 -1.87016,1.73392 -3.69728,3.5547 -5.44852,5.50603 -0.13737,0.15312 -0.25607,0.31844 -0.39209,0.47218 -0.0783,0.0886 -0.15852,0.17437 -0.23633,0.26333 -0.63162,0.68225 -1.26276,1.37176 -1.89236,2.07332 l 0.0702,0.063 c -21.3808,26.06194 -23.33312,60.19774 -3.88798,77.64874 19.44512,17.451 53.17165,11.831 76.77737,-12.2341 l 0.0703,0.063 c 65.5406,-73.02989 130.07229,-65.8272 130.07229,-65.8272 z"
             id="path3951" />
          <path
             inkscape:transform-center-y="-18.064549"
             inkscape:transform-center-x="-53.274409"
             inkscape:connector-curvature="0"
             style="fill:#ff0000;fill-opacity:1;fill-rule:evenodd;stroke:none"
             d="m 657.34854,948.53219 c 0,0 -125.64948,-81.5902 -204.26254,23.45248 -1.66251,2.10822 -3.26613,4.29976 -4.76953,6.61472 -0.11794,0.18164 -0.21443,0.37295 -0.33085,0.555 -0.0671,0.10488 -0.13646,0.2072 -0.2029,0.31241 -0.54574,0.81253 -1.08979,1.63254 -1.63029,2.46484 l 0.0833,0.0541 c -17.99023,30.59106 -14.45735,66.41316 8.61131,81.39466 23.06867,14.9812 57.23108,3.6392 77.86084,-25.2377 l 0.0834,0.054 C 589.05646,951.55815 657.3486,948.53221 657.3486,948.53221 z"
             id="path3953" />
        </g>
        <path
           id="path3955"
           d="m 632.28852,910.10972 c 0,0 -135.30614,-44.0814 -181.7058,71.58407 -1.00902,2.34218 -1.94355,4.7464 -2.75588,7.23932 -0.0637,0.19559 -0.10539,0.39481 -0.1676,0.59042 -0.0359,0.11269 -0.0745,0.22359 -0.10963,0.33642 -0.30169,0.87942 -0.60001,1.76529 -0.89205,2.66157 l 0.0897,0.0292 c -9.0124,32.48288 3.00917,64.49138 27.85122,72.58618 24.84201,8.0947 53.41341,-10.6867 65.26826,-42.2433 l 0.0897,0.029 c 30.40134,-93.29894 92.33205,-112.81318 92.33205,-112.81318 z"
           style="fill:#5784ff;fill-opacity:1;fill-rule:evenodd;stroke:none"
           inkscape:connector-curvature="0"
           inkscape:transform-center-x="-41.131229"
           inkscape:transform-center-y="-24.45181" />
        <path
           inkscape:transform-center-y="-13.857834"
           inkscape:transform-center-x="-53.596456"
           inkscape:connector-curvature="0"
           style="fill:#ffc100;fill-opacity:1;fill-rule:evenodd;stroke:none"
           d="m 666.68396,980.69128 c 0,0 -105.91428,-95.04256 -195.13283,-8.02832 -1.87016,1.73392 -3.69728,3.5547 -5.44852,5.50603 -0.13737,0.15312 -0.25607,0.31844 -0.39209,0.47218 -0.0783,0.0886 -0.15852,0.17437 -0.23633,0.26333 -0.63162,0.68225 -1.26276,1.37176 -1.89236,2.07332 l 0.0702,0.063 c -21.3808,26.06198 -23.33312,60.19778 -3.88798,77.64878 19.44512,17.451 53.17165,11.831 76.77737,-12.2341 l 0.0703,0.063 c 65.5406,-73.02993 130.07229,-65.82724 130.07229,-65.82724 z"
           id="path3957" />
        <path
           inkscape:transform-center-y="-18.064549"
           inkscape:transform-center-x="-53.274409"
           inkscape:connector-curvature="0"
           style="fill:#ff0000;fill-opacity:1;fill-rule:evenodd;stroke:none"
           d="m 663.91453,951.56265 c 0,0 -125.64948,-81.5902 -204.26254,23.45248 -1.66251,2.10822 -3.26613,4.29976 -4.76953,6.61472 -0.11794,0.18164 -0.21443,0.37295 -0.33085,0.555 -0.0671,0.10488 -0.13646,0.2072 -0.2029,0.31241 -0.54574,0.81253 -1.08979,1.63254 -1.63029,2.46484 l 0.0833,0.0541 c -17.99023,30.5911 -14.45735,66.4132 8.61131,81.3947 23.06867,14.9812 57.23108,3.6392 77.86084,-25.2377 l 0.0834,0.054 c 56.26518,-86.63859 124.55732,-89.66453 124.55732,-89.66453 z"
           id="path3959" />
      </g>
      <path
         style="fill:#794200;fill-opacity:1;fill-rule:evenodd;stroke:#4e2c00;stroke-width:5;stroke-linecap:round;stroke-linejoin:round;stroke-miterlimit:4;stroke-opacity:1;stroke-dasharray:none"
         d="m 130,240 -10,10 0,20 10,10 150,0 10,-10 0,-20 -10,-10 z"
         id="path3961"
         inkscape:connector-curvature="0"
         transform="translate(0,652.36218)" />
    </g>
  </g>
</svg>
